<svg class="main-svg" xmlns="http://www.w3.org/2000/svg" xmlns:xlink="http://www.w3.org/1999/xlink" width="700" height="500" style="" viewBox="0 0 700 500"><rect x="0" y="0" width="700" height="500" style="fill: rgb(255, 255, 255); fill-opacity: 1;"/><defs id="defs-c124e9"><g class="clips"><clipPath id="clipc124e9xyplot" class="plotclip"><rect width="540" height="64"/></clipPath><clipPath class="axesclip" id="clipc124e9x"><rect x="80" y="0" width="540" height="500"/></clipPath><clipPath class="axesclip" id="clipc124e9y"><rect x="0" y="80" width="700" height="64"/></clipPath><clipPath class="axesclip" id="clipc124e9xy"><rect x="80" y="80" width="540" height="64"/></clipPath></g><g class="gradients"/><g class="patterns"/></defs><g class="bglayer"><rect class="bg" x="80" y="80" width="540" height="64" style="fill: rgb(229, 236, 246); fill-opacity: 1; stroke-width: 0;"/></g><g class="layer-below"><g class="imagelayer"/><g class="shapelayer"/></g><g class="cartesianlayer"><g class="subplot xy"><g class="layer-subplot"><g class="shapelayer"/><g class="imagelayer"/></g><g class="minor-gridlayer"><g class="x"/><g class="y"/></g><g class="gridlayer"><g class="x"/><g class="y"><path class="ygrid crisp" transform="translate(0,118.55)" d="M80,0h540" style="stroke: rgb(255, 255, 255); stroke-opacity: 1; stroke-width: 1px;"/><path class="ygrid crisp" transform="translate(0,94.98)" d="M80,0h540" style="stroke: rgb(255, 255, 255); stroke-opacity: 1; stroke-width: 1px;"/></g></g><g class="zerolinelayer"><path class="yzl zl crisp" transform="translate(0,142.12)" d="M80,0h540" style="stroke: rgb(255, 255, 255); stroke-opacity: 1; stroke-width: 2px;"/></g><g class="layer-between"><g class="shapelayer"/><g class="imagelayer"/></g><path class="xlines-below"/><path class="ylines-below"/><g class="overlines-below"/><g class="xaxislayer-below"/><g class="yaxislayer-below"/><g class="overaxes-below"/><g class="overplot"><g class="xy" transform="translate(80,80)" clip-path="url(#clipc124e9xyplot)"><g class="boxlayer mlayer"><g class="trace boxes" style="opacity: 1;"><path class="box" d="M6.56,52.18H19.16M6.56,55.42H19.16V47.45H6.56ZM12.86,55.42V59.92M12.86,47.45V36.2M9.71,59.92H16.01M9.71,36.2H16.01" style="vector-effect: none; stroke-width: 2px; stroke: rgb(255, 87, 51); stroke-opacity: 1; fill: rgb(255, 87, 51); fill-opacity: 0.5;"/><path class="box" d="M32.27,49.63H44.87M32.27,52.83H44.87V47H32.27ZM38.57,52.83V58.94M38.57,47V38.36M35.42,58.94H41.72M35.42,38.36H41.72" style="vector-effect: none; stroke-width: 2px; stroke: rgb(255, 87, 51); stroke-opacity: 1; fill: rgb(255, 87, 51); fill-opacity: 0.5;"/><path class="box" d="M57.99,50.34H70.59M57.99,53.67H70.59V47.41H57.99ZM64.29,53.67V59.18M64.29,47.41V38.67M61.14,59.18H67.44M61.14,38.67H67.44" style="vector-effect: none; stroke-width: 2px; stroke: rgb(255, 87, 51); stroke-opacity: 1; fill: rgb(255, 87, 51); fill-opacity: 0.5;"/><path class="box" d="M83.7,52.73H96.3M83.7,54.58H96.3V49.93H83.7ZM90,54.58V57.96M90,49.93V43.21M86.85,57.96H93.15M86.85,43.21H93.15" style="vector-effect: none; stroke-width: 2px; stroke: rgb(255, 87, 51); stroke-opacity: 1; fill: rgb(255, 87, 51); fill-opacity: 0.5;"/><path class="box" d="M109.41,52.11H122.01M109.41,54.23H122.01V49.73H109.41ZM115.71,54.23V59.67M115.71,49.73V43.55M112.56,59.67H118.86M112.56,43.55H118.86" style="vector-effect: none; stroke-width: 2px; stroke: rgb(255, 87, 51); stroke-opacity: 1; fill: rgb(255, 87, 51); fill-opacity: 0.5;"/><path class="box" d="M135.13,52.72H147.73M135.13,55.76H147.73V51H135.13ZM141.43,55.76V60.36M141.43,51V44.05M138.28,60.36H144.58M138.28,44.05H144.58" style="vector-effect: none; stroke-width: 2px; stroke: rgb(255, 87, 51); stroke-opacity: 1; fill: rgb(255, 87, 51); fill-opacity: 0.5;"/><path class="box" d="M160.84,50.66H173.44M160.84,53.87H173.44V47.72H160.84ZM167.14,53.87V60.12M167.14,47.72V38.55M163.99,60.12H170.29M163.99,38.55H170.29" style="vector-effect: none; stroke-width: 2px; stroke: rgb(255, 87, 51); stroke-opacity: 1; fill: rgb(255, 87, 51); fill-opacity: 0.5;"/><path class="box" d="M186.56,52.04H199.16M186.56,55.26H199.16V47.98H186.56ZM192.86,55.26V60.65M192.86,47.98V37.86M189.71,60.65H196.01M189.71,37.86H196.01" style="vector-effect: none; stroke-width: 2px; stroke: rgb(255, 87, 51); stroke-opacity: 1; fill: rgb(255, 87, 51); fill-opacity: 0.5;"/><path class="box" d="M212.27,54.7H224.87M212.27,56.1H224.87V53.09H212.27ZM218.57,56.1V58.97M218.57,53.09V49.58M215.42,58.97H221.72M215.42,49.58H221.72" style="vector-effect: none; stroke-width: 2px; stroke: rgb(255, 87, 51); stroke-opacity: 1; fill: rgb(255, 87, 51); fill-opacity: 0.5;"/><path class="box" d="M237.99,51.56H250.59M237.99,54.46H250.59V48.22H237.99ZM244.29,54.46V58.45M244.29,48.22V39.08M241.14,58.45H247.44M241.14,39.08H247.44" style="vector-effect: none; stroke-width: 2px; stroke: rgb(255, 87, 51); stroke-opacity: 1; fill: rgb(255, 87, 51); fill-opacity: 0.5;"/><path class="box" d="M263.7,54.46H276.3M263.7,56.32H276.3V52.73H263.7ZM270,56.32V60.8M270,52.73V48.52M266.85,60.8H273.15M266.85,48.52H273.15" style="vector-effect: none; stroke-width: 2px; stroke: rgb(255, 87, 51); stroke-opacity: 1; fill: rgb(255, 87, 51); fill-opacity: 0.5;"/><path class="box" d="M289.41,54.16H302.01M289.41,55.16H302.01V51.52H289.41ZM295.71,55.16V59.18M295.71,51.52V47.98M292.56,59.18H298.86M292.56,47.98H298.86" style="vector-effect: none; stroke-width: 2px; stroke: rgb(255, 87, 51); stroke-opacity: 1; fill: rgb(255, 87, 51); fill-opacity: 0.5;"/><path class="box" d="M315.13,50H327.73M315.13,53.22H327.73V42.19H315.13ZM321.43,53.22V56.98M321.43,42.19V42.19M318.28,56.98H324.58M318.28,42.19H324.58" style="vector-effect: none; stroke-width: 2px; stroke: rgb(255, 87, 51); stroke-opacity: 1; fill: rgb(255, 87, 51); fill-opacity: 0.5;"/><path class="box" d="M340.84,50.34H353.44M340.84,55.64H353.44V48.24H340.84ZM347.14,55.64V58.15M347.14,48.24V41.48M343.99,58.15H350.29M343.99,41.48H350.29" style="vector-effect: none; stroke-width: 2px; stroke: rgb(255, 87, 51); stroke-opacity: 1; fill: rgb(255, 87, 51); fill-opacity: 0.5;"/><path class="box" d="M366.56,53.56H379.16M366.56,56.48H379.16V52.51H366.56ZM372.86,56.48V60.12M372.86,52.51V51.12M369.71,60.12H376.01M369.71,51.12H376.01" style="vector-effect: none; stroke-width: 2px; stroke: rgb(255, 87, 51); stroke-opacity: 1; fill: rgb(255, 87, 51); fill-opacity: 0.5;"/><path class="box" d="M392.27,51.4H404.87M392.27,54.36H404.87V47.66H392.27ZM398.57,54.36V57.22M398.57,47.66V43.03M395.42,57.22H401.72M395.42,43.03H401.72" style="vector-effect: none; stroke-width: 2px; stroke: rgb(255, 87, 51); stroke-opacity: 1; fill: rgb(255, 87, 51); fill-opacity: 0.5;"/><path class="box" d="M417.99,47.1H430.59M417.99,53.18H430.59V41.24H417.99ZM424.29,53.18V57.96M424.29,41.24V41.03M421.14,57.96H427.44M421.14,41.03H427.44" style="vector-effect: none; stroke-width: 2px; stroke: rgb(255, 87, 51); stroke-opacity: 1; fill: rgb(255, 87, 51); fill-opacity: 0.5;"/><path class="box" d="M443.7,53.88H456.3M443.7,56.24H456.3V51.52H443.7ZM450,56.24V56.24M450,51.52V51.52M446.85,56.24H453.15M446.85,51.52H453.15" style="vector-effect: none; stroke-width: 2px; stroke: rgb(255, 87, 51); stroke-opacity: 1; fill: rgb(255, 87, 51); fill-opacity: 0.5;"/><path class="box" d="M469.41,50.46H482.01M469.41,57.06H482.01V43.86H469.41ZM475.71,57.06V57.06M475.71,43.86V43.86M472.56,57.06H478.86M472.56,43.86H478.86" style="vector-effect: none; stroke-width: 2px; stroke: rgb(255, 87, 51); stroke-opacity: 1; fill: rgb(255, 87, 51); fill-opacity: 0.5;"/><path class="box" d="M495.13,53.52H507.73M495.13,54.7H507.73V47.68H495.13ZM501.43,54.7V55.64M501.43,47.68V42.07M498.28,55.64H504.58M498.28,42.07H504.58" style="vector-effect: none; stroke-width: 2px; stroke: rgb(255, 87, 51); stroke-opacity: 1; fill: rgb(255, 87, 51); fill-opacity: 0.5;"/><path class="box" d="M520.84,56.98H533.44M520.84,56.98H533.44V56.98H520.84ZM527.14,56.98V56.98M527.14,56.98V56.98M523.99,56.98H530.29M523.99,56.98H530.29" style="vector-effect: none; stroke-width: 2px; stroke: rgb(255, 87, 51); stroke-opacity: 1; fill: rgb(255, 87, 51); fill-opacity: 0.5;"/><g class="points"><path class="point" transform="translate(12.86,33.84)" d="M3,0A3,3 0 1,1 0,-3A3,3 0 0,1 3,0Z" style="opacity: 1; stroke-width: 0px; fill: rgb(255, 87, 51); fill-opacity: 1;"/><path class="point" transform="translate(12.86,33.54)" d="M3,0A3,3 0 1,1 0,-3A3,3 0 0,1 3,0Z" style="opacity: 1; stroke-width: 0px; fill: rgb(255, 87, 51); fill-opacity: 1;"/><path class="point" transform="translate(12.86,3.2)" d="M3,0A3,3 0 1,1 0,-3A3,3 0 0,1 3,0Z" style="opacity: 1; stroke-width: 0px; fill: rgb(255, 87, 51); fill-opacity: 1;"/></g><g class="points"><path class="point" transform="translate(38.57,37.96)" d="M3,0A3,3 0 1,1 0,-3A3,3 0 0,1 3,0Z" style="opacity: 1; stroke-width: 0px; fill: rgb(255, 87, 51); fill-opacity: 1;"/><path class="point" transform="translate(38.57,37.85)" d="M3,0A3,3 0 1,1 0,-3A3,3 0 0,1 3,0Z" style="opacity: 1; stroke-width: 0px; fill: rgb(255, 87, 51); fill-opacity: 1;"/><path class="point" transform="translate(38.57,37.85)" d="M3,0A3,3 0 1,1 0,-3A3,3 0 0,1 3,0Z" style="opacity: 1; stroke-width: 0px; fill: rgb(255, 87, 51); fill-opacity: 1;"/><path class="point" transform="translate(38.57,37.85)" d="M3,0A3,3 0 1,1 0,-3A3,3 0 0,1 3,0Z" style="opacity: 1; stroke-width: 0px; fill: rgb(255, 87, 51); fill-opacity: 1;"/><path class="point" transform="translate(38.57,37.85)" d="M3,0A3,3 0 1,1 0,-3A3,3 0 0,1 3,0Z" style="opacity: 1; stroke-width: 0px; fill: rgb(255, 87, 51); fill-opacity: 1;"/><path class="point" transform="translate(38.57,37.68)" d="M3,0A3,3 0 1,1 0,-3A3,3 0 0,1 3,0Z" style="opacity: 1; stroke-width: 0px; fill: rgb(255, 87, 51); fill-opacity: 1;"/><path class="point" transform="translate(38.57,37.61)" d="M3,0A3,3 0 1,1 0,-3A3,3 0 0,1 3,0Z" style="opacity: 1; stroke-width: 0px; fill: rgb(255, 87, 51); fill-opacity: 1;"/><path class="point" transform="translate(38.57,37.41)" d="M3,0A3,3 0 1,1 0,-3A3,3 0 0,1 3,0Z" style="opacity: 1; stroke-width: 0px; fill: rgb(255, 87, 51); fill-opacity: 1;"/><path class="point" transform="translate(38.57,37.41)" d="M3,0A3,3 0 1,1 0,-3A3,3 0 0,1 3,0Z" style="opacity: 1; stroke-width: 0px; fill: rgb(255, 87, 51); fill-opacity: 1;"/><path class="point" transform="translate(38.57,36.65)" d="M3,0A3,3 0 1,1 0,-3A3,3 0 0,1 3,0Z" style="opacity: 1; stroke-width: 0px; fill: rgb(255, 87, 51); fill-opacity: 1;"/><path class="point" transform="translate(38.57,36.33)" d="M3,0A3,3 0 1,1 0,-3A3,3 0 0,1 3,0Z" style="opacity: 1; stroke-width: 0px; fill: rgb(255, 87, 51); fill-opacity: 1;"/><path class="point" transform="translate(38.57,33.54)" d="M3,0A3,3 0 1,1 0,-3A3,3 0 0,1 3,0Z" style="opacity: 1; stroke-width: 0px; fill: rgb(255, 87, 51); fill-opacity: 1;"/><path class="point" transform="translate(38.57,32.6)" d="M3,0A3,3 0 1,1 0,-3A3,3 0 0,1 3,0Z" style="opacity: 1; stroke-width: 0px; fill: rgb(255, 87, 51); fill-opacity: 1;"/><path class="point" transform="translate(38.57,32.6)" d="M3,0A3,3 0 1,1 0,-3A3,3 0 0,1 3,0Z" style="opacity: 1; stroke-width: 0px; fill: rgb(255, 87, 51); fill-opacity: 1;"/><path class="point" transform="translate(38.57,32.6)" d="M3,0A3,3 0 1,1 0,-3A3,3 0 0,1 3,0Z" style="opacity: 1; stroke-width: 0px; fill: rgb(255, 87, 51); fill-opacity: 1;"/></g><g class="points"><path class="point" transform="translate(64.29,37.86)" d="M3,0A3,3 0 1,1 0,-3A3,3 0 0,1 3,0Z" style="opacity: 1; stroke-width: 0px; fill: rgb(255, 87, 51); fill-opacity: 1;"/><path class="point" transform="translate(64.29,37.61)" d="M3,0A3,3 0 1,1 0,-3A3,3 0 0,1 3,0Z" style="opacity: 1; stroke-width: 0px; fill: rgb(255, 87, 51); fill-opacity: 1;"/><path class="point" transform="translate(64.29,37.61)" d="M3,0A3,3 0 1,1 0,-3A3,3 0 0,1 3,0Z" style="opacity: 1; stroke-width: 0px; fill: rgb(255, 87, 51); fill-opacity: 1;"/><path class="point" transform="translate(64.29,37.61)" d="M3,0A3,3 0 1,1 0,-3A3,3 0 0,1 3,0Z" style="opacity: 1; stroke-width: 0px; fill: rgb(255, 87, 51); fill-opacity: 1;"/><path class="point" transform="translate(64.29,35.61)" d="M3,0A3,3 0 1,1 0,-3A3,3 0 0,1 3,0Z" style="opacity: 1; stroke-width: 0px; fill: rgb(255, 87, 51); fill-opacity: 1;"/></g><g class="points"><path class="point" transform="translate(90,42.67)" d="M3,0A3,3 0 1,1 0,-3A3,3 0 0,1 3,0Z" style="opacity: 1; stroke-width: 0px; fill: rgb(255, 87, 51); fill-opacity: 1;"/><path class="point" transform="translate(90,42.09)" d="M3,0A3,3 0 1,1 0,-3A3,3 0 0,1 3,0Z" style="opacity: 1; stroke-width: 0px; fill: rgb(255, 87, 51); fill-opacity: 1;"/><path class="point" transform="translate(90,41.88)" d="M3,0A3,3 0 1,1 0,-3A3,3 0 0,1 3,0Z" style="opacity: 1; stroke-width: 0px; fill: rgb(255, 87, 51); fill-opacity: 1;"/></g><g class="points"><path class="point" transform="translate(115.71,42.84)" d="M3,0A3,3 0 1,1 0,-3A3,3 0 0,1 3,0Z" style="opacity: 1; stroke-width: 0px; fill: rgb(255, 87, 51); fill-opacity: 1;"/><path class="point" transform="translate(115.71,42.84)" d="M3,0A3,3 0 1,1 0,-3A3,3 0 0,1 3,0Z" style="opacity: 1; stroke-width: 0px; fill: rgb(255, 87, 51); fill-opacity: 1;"/><path class="point" transform="translate(115.71,41.5)" d="M3,0A3,3 0 1,1 0,-3A3,3 0 0,1 3,0Z" style="opacity: 1; stroke-width: 0px; fill: rgb(255, 87, 51); fill-opacity: 1;"/><path class="point" transform="translate(115.71,41.3)" d="M3,0A3,3 0 1,1 0,-3A3,3 0 0,1 3,0Z" style="opacity: 1; stroke-width: 0px; fill: rgb(255, 87, 51); fill-opacity: 1;"/><path class="point" transform="translate(115.71,41.3)" d="M3,0A3,3 0 1,1 0,-3A3,3 0 0,1 3,0Z" style="opacity: 1; stroke-width: 0px; fill: rgb(255, 87, 51); fill-opacity: 1;"/><path class="point" transform="translate(115.71,41.3)" d="M3,0A3,3 0 1,1 0,-3A3,3 0 0,1 3,0Z" style="opacity: 1; stroke-width: 0px; fill: rgb(255, 87, 51); fill-opacity: 1;"/><path class="point" transform="translate(115.71,41.3)" d="M3,0A3,3 0 1,1 0,-3A3,3 0 0,1 3,0Z" style="opacity: 1; stroke-width: 0px; fill: rgb(255, 87, 51); fill-opacity: 1;"/><path class="point" transform="translate(115.71,40.02)" d="M3,0A3,3 0 1,1 0,-3A3,3 0 0,1 3,0Z" style="opacity: 1; stroke-width: 0px; fill: rgb(255, 87, 51); fill-opacity: 1;"/><path class="point" transform="translate(115.71,38.85)" d="M3,0A3,3 0 1,1 0,-3A3,3 0 0,1 3,0Z" style="opacity: 1; stroke-width: 0px; fill: rgb(255, 87, 51); fill-opacity: 1;"/><path class="point" transform="translate(115.71,38.55)" d="M3,0A3,3 0 1,1 0,-3A3,3 0 0,1 3,0Z" style="opacity: 1; stroke-width: 0px; fill: rgb(255, 87, 51); fill-opacity: 1;"/><path class="point" transform="translate(115.71,37.69)" d="M3,0A3,3 0 1,1 0,-3A3,3 0 0,1 3,0Z" style="opacity: 1; stroke-width: 0px; fill: rgb(255, 87, 51); fill-opacity: 1;"/><path class="point" transform="translate(115.71,36.58)" d="M3,0A3,3 0 1,1 0,-3A3,3 0 0,1 3,0Z" style="opacity: 1; stroke-width: 0px; fill: rgb(255, 87, 51); fill-opacity: 1;"/></g><g class="points"><path class="point" transform="translate(141.43,43.27)" d="M3,0A3,3 0 1,1 0,-3A3,3 0 0,1 3,0Z" style="opacity: 1; stroke-width: 0px; fill: rgb(255, 87, 51); fill-opacity: 1;"/><path class="point" transform="translate(141.43,40.06)" d="M3,0A3,3 0 1,1 0,-3A3,3 0 0,1 3,0Z" style="opacity: 1; stroke-width: 0px; fill: rgb(255, 87, 51); fill-opacity: 1;"/><path class="point" transform="translate(141.43,32.25)" d="M3,0A3,3 0 1,1 0,-3A3,3 0 0,1 3,0Z" style="opacity: 1; stroke-width: 0px; fill: rgb(255, 87, 51); fill-opacity: 1;"/></g><g class="points"><path class="point" transform="translate(167.14,38.32)" d="M3,0A3,3 0 1,1 0,-3A3,3 0 0,1 3,0Z" style="opacity: 1; stroke-width: 0px; fill: rgb(255, 87, 51); fill-opacity: 1;"/><path class="point" transform="translate(167.14,36.46)" d="M3,0A3,3 0 1,1 0,-3A3,3 0 0,1 3,0Z" style="opacity: 1; stroke-width: 0px; fill: rgb(255, 87, 51); fill-opacity: 1;"/></g><g class="points"><path class="point" transform="translate(192.86,35.02)" d="M3,0A3,3 0 1,1 0,-3A3,3 0 0,1 3,0Z" style="opacity: 1; stroke-width: 0px; fill: rgb(255, 87, 51); fill-opacity: 1;"/><path class="point" transform="translate(192.86,32.66)" d="M3,0A3,3 0 1,1 0,-3A3,3 0 0,1 3,0Z" style="opacity: 1; stroke-width: 0px; fill: rgb(255, 87, 51); fill-opacity: 1;"/><path class="point" transform="translate(192.86,25.58)" d="M3,0A3,3 0 1,1 0,-3A3,3 0 0,1 3,0Z" style="opacity: 1; stroke-width: 0px; fill: rgb(255, 87, 51); fill-opacity: 1;"/></g><g class="points"><path class="point" transform="translate(218.57,47.98)" d="M3,0A3,3 0 1,1 0,-3A3,3 0 0,1 3,0Z" style="opacity: 1; stroke-width: 0px; fill: rgb(255, 87, 51); fill-opacity: 1;"/><path class="point" transform="translate(218.57,45.7)" d="M3,0A3,3 0 1,1 0,-3A3,3 0 0,1 3,0Z" style="opacity: 1; stroke-width: 0px; fill: rgb(255, 87, 51); fill-opacity: 1;"/></g><g class="points"/><g class="points"><path class="point" transform="translate(270,46.21)" d="M3,0A3,3 0 1,1 0,-3A3,3 0 0,1 3,0Z" style="opacity: 1; stroke-width: 0px; fill: rgb(255, 87, 51); fill-opacity: 1;"/></g><g class="points"><path class="point" transform="translate(295.71,43.74)" d="M3,0A3,3 0 1,1 0,-3A3,3 0 0,1 3,0Z" style="opacity: 1; stroke-width: 0px; fill: rgb(255, 87, 51); fill-opacity: 1;"/><path class="point" transform="translate(295.71,42.27)" d="M3,0A3,3 0 1,1 0,-3A3,3 0 0,1 3,0Z" style="opacity: 1; stroke-width: 0px; fill: rgb(255, 87, 51); fill-opacity: 1;"/></g><g class="points"/><g class="points"/><g class="points"><path class="point" transform="translate(372.86,46.11)" d="M3,0A3,3 0 1,1 0,-3A3,3 0 0,1 3,0Z" style="opacity: 1; stroke-width: 0px; fill: rgb(255, 87, 51); fill-opacity: 1;"/><path class="point" transform="translate(372.86,45.04)" d="M3,0A3,3 0 1,1 0,-3A3,3 0 0,1 3,0Z" style="opacity: 1; stroke-width: 0px; fill: rgb(255, 87, 51); fill-opacity: 1;"/></g><g class="points"/><g class="points"/><g class="points"/><g class="points"/><g class="points"/><g class="points"/></g></g></g></g><path class="xlines-above crisp" d="M0,0" style="fill: none;"/><path class="ylines-above crisp" d="M0,0" style="fill: none;"/><g class="overlines-above"/><g class="xaxislayer-above"><g class="xtick"><text text-anchor="start" x="0" y="157" transform="translate(92.86,0) rotate(90,0,151)" style="font-family: 'Open Sans', verdana, arial, sans-serif; font-size: 12px; fill: rgb(42, 63, 95); fill-opacity: 1; white-space: pre; opacity: 1;">Unclassified Industry</text></g><g class="xtick"><text text-anchor="start" x="0" y="157" transform="translate(118.57,0) rotate(90,0,151)" style="font-family: 'Open Sans', verdana, arial, sans-serif; font-size: 12px; fill: rgb(42, 63, 95); fill-opacity: 1; white-space: pre; opacity: 1;">Information</text></g><g class="xtick"><text text-anchor="start" x="0" y="157" transform="translate(144.29000000000002,0) rotate(90,0,151)" style="font-family: 'Open Sans', verdana, arial, sans-serif; font-size: 12px; fill: rgb(42, 63, 95); fill-opacity: 1; white-space: pre; opacity: 1;">Professional, Scientific, and Technical Services</text></g><g class="xtick"><text text-anchor="start" x="0" y="157" transform="translate(170,0) rotate(90,0,151)" style="font-family: 'Open Sans', verdana, arial, sans-serif; font-size: 12px; fill: rgb(42, 63, 95); fill-opacity: 1; white-space: pre; opacity: 1;">Wholesale Trade</text></g><g class="xtick"><text text-anchor="start" x="0" y="157" transform="translate(195.70999999999998,0) rotate(90,0,151)" style="font-family: 'Open Sans', verdana, arial, sans-serif; font-size: 12px; fill: rgb(42, 63, 95); fill-opacity: 1; white-space: pre; opacity: 1;">Finance and Insurance</text></g><g class="xtick"><text text-anchor="start" x="0" y="157" transform="translate(221.43,0) rotate(90,0,151)" style="font-family: 'Open Sans', verdana, arial, sans-serif; font-size: 12px; fill: rgb(42, 63, 95); fill-opacity: 1; white-space: pre; opacity: 1;">Health Care and Social Assistance</text></g><g class="xtick"><text text-anchor="start" x="0" y="157" transform="translate(247.14,0) rotate(90,0,151)" style="font-family: 'Open Sans', verdana, arial, sans-serif; font-size: 12px; fill: rgb(42, 63, 95); fill-opacity: 1; white-space: pre; opacity: 1;">Manufacturing</text></g><g class="xtick"><text text-anchor="start" x="0" y="157" transform="translate(272.86,0) rotate(90,0,151)" style="font-family: 'Open Sans', verdana, arial, sans-serif; font-size: 12px; fill: rgb(42, 63, 95); fill-opacity: 1; white-space: pre; opacity: 1;">Administrative and Support and Waste Management and Remediation Services</text></g><g class="xtick"><text text-anchor="start" x="0" y="157" transform="translate(298.57,0) rotate(90,0,151)" style="font-family: 'Open Sans', verdana, arial, sans-serif; font-size: 12px; fill: rgb(42, 63, 95); fill-opacity: 1; white-space: pre; opacity: 1;">Public Administration</text></g><g class="xtick"><text text-anchor="start" x="0" y="157" transform="translate(324.28999999999996,0) rotate(90,0,151)" style="font-family: 'Open Sans', verdana, arial, sans-serif; font-size: 12px; fill: rgb(42, 63, 95); fill-opacity: 1; white-space: pre; opacity: 1;">Retail Trade</text></g><g class="xtick"><text text-anchor="start" x="0" y="157" transform="translate(350,0) rotate(90,0,151)" style="font-family: 'Open Sans', verdana, arial, sans-serif; font-size: 12px; fill: rgb(42, 63, 95); fill-opacity: 1; white-space: pre; opacity: 1;">Educational Services</text></g><g class="xtick"><text text-anchor="start" x="0" y="157" transform="translate(375.71,0) rotate(90,0,151)" style="font-family: 'Open Sans', verdana, arial, sans-serif; font-size: 12px; fill: rgb(42, 63, 95); fill-opacity: 1; white-space: pre; opacity: 1;">Real Estate and Rental and Leasing</text></g><g class="xtick"><text text-anchor="start" x="0" y="157" transform="translate(401.43,0) rotate(90,0,151)" style="font-family: 'Open Sans', verdana, arial, sans-serif; font-size: 12px; fill: rgb(42, 63, 95); fill-opacity: 1; white-space: pre; opacity: 1;">Construction</text></g><g class="xtick"><text text-anchor="start" x="0" y="157" transform="translate(427.14,0) rotate(90,0,151)" style="font-family: 'Open Sans', verdana, arial, sans-serif; font-size: 12px; fill: rgb(42, 63, 95); fill-opacity: 1; white-space: pre; opacity: 1;">Transportation and Warehousing</text></g><g class="xtick"><text text-anchor="start" x="0" y="157" transform="translate(452.86,0) rotate(90,0,151)" style="font-family: 'Open Sans', verdana, arial, sans-serif; font-size: 12px; fill: rgb(42, 63, 95); fill-opacity: 1; white-space: pre; opacity: 1;">Other Services (except Public Administration)</text></g><g class="xtick"><text text-anchor="start" x="0" y="157" transform="translate(478.57,0) rotate(90,0,151)" style="font-family: 'Open Sans', verdana, arial, sans-serif; font-size: 12px; fill: rgb(42, 63, 95); fill-opacity: 1; white-space: pre; opacity: 1;">Utilities</text></g><g class="xtick"><text text-anchor="start" x="0" y="157" transform="translate(504.29,0) rotate(90,0,151)" style="font-family: 'Open Sans', verdana, arial, sans-serif; font-size: 12px; fill: rgb(42, 63, 95); fill-opacity: 1; white-space: pre; opacity: 1;">Accommodation and Food Services</text></g><g class="xtick"><text text-anchor="start" x="0" y="157" transform="translate(530,0) rotate(90,0,151)" style="font-family: 'Open Sans', verdana, arial, sans-serif; font-size: 12px; fill: rgb(42, 63, 95); fill-opacity: 1; white-space: pre; opacity: 1;">Mining, Quarrying, and Oil and Gas Extraction</text></g><g class="xtick"><text text-anchor="start" x="0" y="157" transform="translate(555.71,0) rotate(90,0,151)" style="font-family: 'Open Sans', verdana, arial, sans-serif; font-size: 12px; fill: rgb(42, 63, 95); fill-opacity: 1; white-space: pre; opacity: 1;">Agriculture, Forestry, Fishing and Hunting</text></g><g class="xtick"><text text-anchor="start" x="0" y="157" transform="translate(581.4300000000001,0) rotate(90,0,151)" style="font-family: 'Open Sans', verdana, arial, sans-serif; font-size: 12px; fill: rgb(42, 63, 95); fill-opacity: 1; white-space: pre; opacity: 1;">Management of Companies and Enterprises</text></g><g class="xtick"><text text-anchor="start" x="0" y="157" transform="translate(607.14,0) rotate(90,0,151)" style="font-family: 'Open Sans', verdana, arial, sans-serif; font-size: 12px; fill: rgb(42, 63, 95); fill-opacity: 1; white-space: pre; opacity: 1;">Arts, Entertainment, and Recreation</text></g></g><g class="yaxislayer-above"><g class="ytick"><text text-anchor="end" x="79" y="4.199999999999999" transform="translate(0,142.12)" style="font-family: 'Open Sans', verdana, arial, sans-serif; font-size: 12px; fill: rgb(42, 63, 95); fill-opacity: 1; white-space: pre; opacity: 1;">0</text></g><g class="ytick"><text text-anchor="end" x="79" y="4.199999999999999" style="font-family: 'Open Sans', verdana, arial, sans-serif; font-size: 12px; fill: rgb(42, 63, 95); fill-opacity: 1; white-space: pre; opacity: 1;" transform="translate(0,118.55)">200k</text></g><g class="ytick"><text text-anchor="end" x="79" y="4.199999999999999" style="font-family: 'Open Sans', verdana, arial, sans-serif; font-size: 12px; fill: rgb(42, 63, 95); fill-opacity: 1; white-space: pre; opacity: 1;" transform="translate(0,94.98)">400k</text></g></g><g class="overaxes-above"/></g></g><g class="polarlayer"/><g class="smithlayer"/><g class="ternarylayer"/><g class="geolayer"/><g class="funnelarealayer"/><g class="pielayer"/><g class="iciclelayer"/><g class="treemaplayer"/><g class="sunburstlayer"/><g class="glimages"/><defs id="topdefs-c124e9"><g class="clips"/></defs><g class="layer-above"><g class="imagelayer"/><g class="shapelayer"/></g><g class="infolayer"><g class="g-gtitle"><text class="gtitle" x="35" y="40" text-anchor="start" dy="0em" style="opacity: 1; font-family: 'Open Sans', verdana, arial, sans-serif; font-size: 17px; fill: rgb(42, 63, 95); fill-opacity: 1; white-space: pre;">Salary Distribution by Industry</text></g><g class="g-xtitle" transform="translate(0,-153.31562499999995)"><text class="xtitle" x="350" y="650.315625" text-anchor="middle" style="opacity: 1; font-family: 'Open Sans', verdana, arial, sans-serif; font-size: 14px; fill: rgb(42, 63, 95); fill-opacity: 1; white-space: pre;">NAICS2_NAME</text></g><g class="g-ytitle"><text class="ytitle" transform="rotate(-90,29.740625,112)" x="29.740625" y="112" text-anchor="middle" style="opacity: 1; font-family: 'Open Sans', verdana, arial, sans-serif; font-size: 14px; fill: rgb(42, 63, 95); fill-opacity: 1; white-space: pre;">SALARY_FROM</text></g></g></svg>